<?xml version="1.0" encoding="utf-8"?>
<!-- Generator: Adobe Illustrator 16.0.0, SVG Export Plug-In . SVG Version: 6.00 Build 0)  -->
<!DOCTYPE svg PUBLIC "-//W3C//DTD SVG 1.1//EN" "http://www.w3.org/Graphics/SVG/1.1/DTD/svg11.dtd">
<svg version="1.1" id="Livello_1" xmlns="http://www.w3.org/2000/svg" xmlns:xlink="http://www.w3.org/1999/xlink" x="0px" y="0px"
	 width="841.89px" height="291.397px" viewBox="0 0 841.89 291.397" enable-background="new 0 0 841.89 291.397"
	 xml:space="preserve">
<g>
	<defs>
		<rect id="SVGID_1_" width="841.89" height="291.397"/>
	</defs>
	<clipPath id="SVGID_2_">
		<use xlink:href="#SVGID_1_"  overflow="visible"/>
	</clipPath>
	<path clip-path="url(#SVGID_2_)" d="M54.598,243.057l-0.265-0.62h0.974l0.088,0.266l12.485,28.29l12.396-28.29l0.088-0.266h0.974
		l-0.265,0.62l-12.795,29.219c-0.133,0.31-0.664,0.31-0.797,0L54.598,243.057z"/>
	<path clip-path="url(#SVGID_2_)" d="M159.888,272.276l-0.088,0.266h-0.974l0.266-0.62l12.838-29.218
		c0.133-0.312,0.664-0.312,0.797,0l12.839,29.218l0.265,0.62h-0.974l-0.088-0.266l-12.441-28.289L159.888,272.276z"/>
	<path clip-path="url(#SVGID_2_)" d="M267.104,257.89l-0.021-0.002l0.022-0.423l0.022-14.542c0-0.265,0.177-0.441,0.443-0.441
		l12.882-0.045c4.826,0,8.766,3.497,8.766,7.792c0,4.249-3.94,7.702-8.766,7.702h-12.484v14.167v0.443h-0.885v-0.443L267.104,257.89
		z M267.968,257.089l12.484-0.043c4.295,0,7.881-3.01,7.881-6.817c0-3.852-3.586-6.906-7.881-6.906h-12.484V257.089z"/>
	<path clip-path="url(#SVGID_2_)" d="M392.383,242.437h0.443v0.885h-0.443h-19.922v13.725h14.477h0.442v0.885h-0.442h-14.477v13.725
		h19.922h0.443v0.886h-0.443h-20.365c-0.265,0-0.442-0.178-0.442-0.443v-14.167v-0.885v-14.167c0-0.266,0.177-0.442,0.442-0.442
		H392.383z"/>
	<path clip-path="url(#SVGID_2_)" d="M493.733,250.185v0.441h-0.885v-0.441c0-3.853-3.985-6.862-8.811-6.862
		c-4.826,0-8.811,3.01-8.811,6.862c0,6.816,19.48,6.816,19.436,14.608c0,4.118-4.736,7.748-10.625,7.748
		c-6.021,0-10.625-3.586-10.625-7.748v-0.441h0.885v0.441c0,3.809,4.428,6.862,9.74,6.862c5.179,0,9.74-3.099,9.74-6.862
		c0-6.949-19.392-6.861-19.436-14.608c0-4.206,4.25-7.748,9.695-7.748S493.733,245.979,493.733,250.185"/>
	<polygon clip-path="url(#SVGID_2_)" points="599.156,257.931 599.156,272.098 599.156,272.542 598.271,272.542 598.271,272.098 
		598.271,257.931 577.905,257.931 577.905,272.098 577.905,272.542 577.021,272.542 577.021,272.098 577.021,257.931 
		577.021,257.046 577.021,242.879 577.021,242.437 577.905,242.437 577.905,242.879 577.905,257.046 598.271,257.046 
		598.271,242.879 598.271,242.437 599.156,242.437 599.156,242.879 599.156,257.046 	"/>
	<path clip-path="url(#SVGID_2_)" d="M682.398,257.49c0-8.367,6.021-15.053,13.281-15.053c7.305,0,13.281,6.686,13.281,15.053
		c0,8.366-5.977,15.052-13.281,15.052C688.42,272.542,682.398,265.856,682.398,257.49 M683.284,257.49
		c0,7.836,5.578,14.167,12.396,14.167c6.862,0,12.396-6.331,12.396-14.167s-5.534-14.167-12.396-14.167
		C688.862,243.323,683.284,249.654,683.284,257.49"/>
	<path clip-path="url(#SVGID_2_)" d="M792.227,257.89l-0.022-0.002l0.022-0.423l0.022-14.542c0-0.265,0.177-0.441,0.442-0.441
		l12.883-0.045c4.826,0,8.767,3.497,8.767,7.792c0,4.249-3.94,7.702-8.767,7.702H793.09v14.167v0.443h-0.886v-0.443L792.227,257.89z
		 M793.09,257.089l12.484-0.043c4.295,0,7.881-3.01,7.881-6.817c0-3.852-3.586-6.906-7.881-6.906H793.09V257.089z"/>
	<polygon clip-path="url(#SVGID_2_)" points="829.423,16.467 801.454,16.467 764.229,80.677 732.023,16.467 704.94,16.467 
		794.861,195.744 821.934,195.744 777.199,106.546 	"/>
	<polygon clip-path="url(#SVGID_2_)" points="409.968,138.231 336.067,16.468 319.701,16.468 319.701,195.744 343.899,195.744 
		343.899,75.929 417.097,195.744 434.164,195.744 434.164,16.468 409.968,16.468 	"/>
	<path clip-path="url(#SVGID_2_)" d="M698.818,68.117c0-26.423-22.456-47.921-50.062-47.921h-55.124v24.197h55.124
		c14.262,0,25.864,10.643,25.864,23.724S663.019,91.84,648.757,91.84c-3.428,0-6.71,1.462-8.999,4.008
		c-2.292,2.55-3.398,5.965-3.034,9.385l0.061,0.543c0.144,1.35,0.513,2.659,1.097,3.898l40.789,86.07h26.78l-39.212-82.718
		C685.646,106.104,698.818,88.262,698.818,68.117"/>
	<polygon clip-path="url(#SVGID_2_)" points="211.931,16.467 140.046,195.744 166.119,195.744 218.625,64.789 270.773,195.744 
		296.812,195.744 225.31,16.467 	"/>
	<path clip-path="url(#SVGID_2_)" d="M57.349,152.602c-12.823-11.938-20.229-28.153-20.857-45.66
		c-0.629-17.507,5.599-34.211,17.535-47.033C65.962,47.086,82.178,39.68,99.69,39.051c17.455-0.642,34.241,5.633,47.028,17.532
		c1.637,1.527,3.236,3.179,4.748,4.907l4.376,5.001l10.042-25.051l-2.678-2.565c-17.473-16.266-40.462-24.902-64.388-24.007
		c-23.969,0.859-46.166,11.001-62.505,28.553c-16.338,17.556-24.862,40.422-24.004,64.388c0.858,23.968,10.998,46.166,28.554,62.504
		c16.63,15.479,38.272,24.025,60.938,24.062l2.761,0.005l9.864-24.602l-10.051,0.359C86.905,170.797,70.143,164.509,57.349,152.602"
		/>
	<polygon clip-path="url(#SVGID_2_)" points="527.705,16.467 455.821,195.744 481.892,195.744 534.403,64.789 586.548,195.744 
		612.588,195.744 541.089,16.467 	"/>
</g>
</svg>
